<?xml version="1.0" standalone="no"?>
<!DOCTYPE svg PUBLIC "-//W3C//DTD SVG 20010904//EN"
 "http://www.w3.org/TR/2001/REC-SVG-20010904/DTD/svg10.dtd">
<svg version="1.0" xmlns="http://www.w3.org/2000/svg"
 width="500.000000pt" height="500.000000pt" viewBox="0 0 500.000000 500.000000"
 preserveAspectRatio="xMidYMid meet">

<g transform="translate(0.000000,500.000000) scale(0.100000,-0.100000)"
fill="#000000" stroke="none">
<path d="M0 2500 l0 -2500 2500 0 2500 0 0 2500 0 2500 -2500 0 -2500 0 0
-2500z m1742 613 c17 -15 18 -48 18 -616 0 -545 -2 -602 -17 -619 -15 -17 -48
-18 -641 -18 -568 0 -627 2 -644 17 -17 15 -18 48 -18 616 0 545 2 602 17 619
15 17 48 18 641 18 568 0 627 -2 644 -17z m367 -316 c31 -15 35 -28 17 -52
-12 -16 -17 -18 -27 -7 -23 22 -75 15 -98 -14 -52 -67 5 -154 81 -123 35 14
37 39 3 39 -20 0 -25 5 -25 25 0 23 3 25 50 25 l50 0 0 -50 c0 -57 -21 -84
-81 -102 -68 -20 -143 36 -156 115 -16 104 95 191 186 144z m221 -97 l0 -110
55 0 c52 0 55 -1 55 -25 0 -25 -1 -25 -85 -25 l-85 0 0 135 0 135 30 0 30 0 0
-110z m391 95 c43 -23 69 -71 69 -127 0 -39 -6 -54 -31 -83 -17 -19 -48 -40
-69 -46 -107 -32 -201 108 -139 207 37 61 108 81 170 49z m370 -2 c34 -20 35
-25 11 -46 -12 -11 -22 -13 -32 -7 -25 16 -69 11 -90 -10 -27 -27 -27 -90 0
-115 25 -23 74 -24 98 -2 18 16 20 16 37 -3 17 -19 17 -21 0 -40 -49 -54 -155
-40 -195 25 -24 39 -26 104 -5 146 33 62 117 87 176 52z m319 13 c0 -2 25 -63
54 -135 l55 -131 -34 0 c-28 0 -35 5 -44 30 -9 28 -13 30 -64 30 -51 0 -55 -2
-67 -30 -10 -25 -18 -30 -46 -30 l-33 0 46 108 c25 59 50 119 55 135 8 22 16
27 44 27 19 0 34 -2 34 -4z m270 -106 l0 -110 55 0 c52 0 55 -1 55 -25 0 -25
-1 -25 -85 -25 l-85 0 0 135 0 135 30 0 30 0 0 -110z m-1585 -340 c0 -23 -4
-25 -52 -28 -45 -3 -53 -6 -53 -23 0 -16 7 -19 45 -19 43 0 45 -1 45 -30 0
-29 -2 -30 -45 -30 -43 0 -45 -1 -45 -30 0 -30 1 -30 55 -30 52 0 55 -1 55
-25 0 -25 -1 -25 -85 -25 l-85 0 0 135 0 136 83 -3 c80 -3 82 -4 82 -28z m286
1 c25 -31 24 -79 -3 -108 l-21 -23 33 -42 c18 -24 38 -49 43 -55 7 -10 1 -13
-26 -13 -30 0 -40 7 -76 55 -23 30 -46 55 -51 55 -6 0 -10 -25 -10 -55 0 -54
0 -55 -30 -55 l-30 0 0 136 0 136 76 -4 c65 -3 79 -7 95 -27z m259 5 c0 -14
-4 -28 -10 -31 -5 -3 -10 -42 -10 -86 0 -46 4 -79 10 -79 6 0 10 -11 10 -25 0
-23 -3 -25 -50 -25 -47 0 -50 2 -50 25 0 14 5 25 10 25 6 0 10 35 10 85 0 50
-4 85 -10 85 -11 0 -14 33 -3 43 3 4 26 7 50 7 39 0 43 -2 43 -24z m295 14
c33 -13 42 -37 21 -58 -12 -13 -18 -13 -28 -4 -22 22 -75 14 -97 -14 -37 -47
-24 -102 28 -124 27 -11 35 -10 65 8 33 20 35 20 51 2 15 -17 15 -19 -6 -39
-13 -12 -40 -26 -60 -33 -31 -9 -43 -8 -75 8 -76 38 -104 120 -64 191 36 65
98 89 165 63z m330 -20 c0 -23 -4 -25 -52 -28 -45 -3 -53 -6 -53 -23 0 -16 7
-19 45 -19 43 0 45 -1 45 -30 0 -29 -2 -30 -45 -30 -43 0 -45 -1 -45 -30 0
-30 1 -30 55 -30 52 0 55 -1 55 -25 0 -25 -1 -25 -85 -25 l-85 0 0 135 0 136
83 -3 c80 -3 82 -4 82 -28z m213 3 c2 -13 -1 -23 -7 -23 -7 0 -11 -31 -11 -85
0 -50 4 -85 10 -85 6 0 10 -11 10 -25 0 -23 -3 -25 -50 -25 -47 0 -50 2 -50
25 0 14 5 25 10 25 6 0 10 33 10 79 0 44 -4 83 -10 86 -5 3 -10 17 -10 31 0
24 3 25 48 22 40 -3 47 -6 50 -25z m255 15 c50 -26 61 -77 26 -122 -22 -28
-22 -31 29 -93 l34 -43 -35 0 c-32 0 -41 6 -78 55 -23 30 -45 55 -50 55 -5 0
-9 -25 -9 -55 0 -54 0 -55 -30 -55 l-30 0 0 135 0 135 61 0 c33 0 70 -5 82
-12z m413 -123 c30 -71 54 -131 54 -132 0 -2 -15 -3 -33 -3 -27 0 -35 5 -44
30 -11 28 -14 30 -66 30 -52 0 -56 -2 -66 -30 -8 -24 -16 -30 -40 -30 -17 0
-31 4 -31 8 0 8 95 236 106 253 3 6 19 9 36 7 28 -3 32 -11 84 -133z"/>
<path d="M700 2711 c0 -12 6 -21 14 -21 7 0 30 -13 51 -30 21 -16 48 -30 60
-30 12 0 39 14 60 30 42 34 66 38 86 14 17 -20 63 -44 87 -44 11 0 36 14 57
30 42 34 66 38 86 14 40 -49 108 -53 149 -8 30 31 57 31 89 0 15 -14 38 -28
54 -31 23 -6 27 -4 27 14 0 12 -6 21 -14 21 -7 0 -30 14 -51 30 -21 17 -48 30
-60 30 -12 0 -39 -13 -60 -30 -42 -34 -66 -38 -86 -14 -22 27 -70 46 -97 39
-14 -3 -39 -17 -55 -31 -33 -28 -59 -31 -78 -8 -40 49 -108 53 -149 8 -30 -31
-57 -31 -89 0 -15 14 -38 28 -53 31 -24 6 -28 4 -28 -14z"/>
<path d="M700 2521 c0 -12 6 -21 14 -21 7 0 30 -13 51 -30 21 -16 48 -30 60
-30 12 0 39 14 60 30 42 34 66 38 86 14 17 -20 63 -44 87 -44 11 0 36 14 57
30 42 34 66 38 86 14 40 -49 108 -53 149 -8 30 31 57 31 89 0 15 -14 38 -28
54 -31 23 -6 27 -4 27 14 0 12 -6 21 -14 21 -7 0 -30 14 -51 30 -21 17 -48 30
-60 30 -12 0 -39 -13 -60 -30 -42 -34 -66 -38 -86 -14 -22 27 -70 46 -97 39
-14 -3 -39 -17 -55 -31 -33 -28 -59 -31 -78 -8 -40 49 -108 53 -149 8 -30 -31
-57 -31 -89 0 -15 14 -38 28 -53 31 -24 6 -28 4 -28 -14z"/>
<path d="M700 2341 c0 -12 6 -21 14 -21 7 0 30 -13 51 -30 21 -16 48 -30 60
-30 12 0 39 14 60 30 42 34 66 38 86 14 17 -20 63 -44 87 -44 11 0 36 14 57
30 42 34 66 38 86 14 40 -49 108 -53 149 -8 30 31 57 31 89 0 15 -14 38 -28
54 -31 23 -6 27 -4 27 14 0 12 -6 21 -14 21 -7 0 -30 14 -51 30 -21 17 -48 30
-60 30 -12 0 -39 -13 -60 -30 -42 -34 -66 -38 -86 -14 -22 27 -70 46 -97 39
-14 -3 -39 -17 -55 -31 -33 -28 -59 -31 -78 -8 -40 49 -108 53 -149 8 -30 -31
-57 -31 -89 0 -15 14 -38 28 -53 31 -24 6 -28 4 -28 -14z"/>
<path d="M2612 2727 c-46 -49 -16 -130 48 -130 41 0 70 32 70 79 0 67 -73 99
-118 51z"/>
<path d="M3357 2685 l-17 -35 35 0 c34 0 34 1 23 28 -19 43 -23 44 -41 7z"/>
<path d="M2270 2304 c0 -23 3 -25 33 -22 24 2 33 8 35 26 3 19 -1 22 -32 22
-32 0 -36 -3 -36 -26z"/>
<path d="M3650 2305 c0 -24 3 -26 33 -23 24 2 32 8 32 23 0 15 -8 21 -32 23
-30 3 -33 1 -33 -23z"/>
<path d="M4041 2268 c-6 -17 -11 -33 -11 -34 0 -2 13 -4 29 -4 29 0 30 1 19
30 -14 42 -24 45 -37 8z"/>
</g>
</svg>
